<?xml version="1.0" encoding="utf-8" ?>
<svg baseProfile="tiny" height="100" version="1.2" viewBox="0 0 100 100" width="100" xmlns="http://www.w3.org/2000/svg" xmlns:ev="http://www.w3.org/2001/xml-events" xmlns:xlink="http://www.w3.org/1999/xlink"><defs /><path d="M 51.46,94.92 L 51.09,94.92 L 50.73,94.92 L 50.36,94.92 L 50.00,94.92 L 49.64,94.92 L 49.27,94.60 L 49.27,94.60 L 48.91,94.29 L 48.91,94.28 L 48.54,93.97 L 48.54,93.97 L 48.18,93.65 L 48.18,93.65 L 47.81,93.33 L 47.81,93.33 L 47.45,93.02 L 47.45,93.01 L 47.08,92.70 L 47.08,92.38 L 47.08,92.38 L 46.72,92.06 L 46.72,92.06 L 46.35,91.75 L 46.35,91.43 L 46.35,91.43 L 45.99,91.11 L 45.99,91.11 L 45.62,90.79 L 45.62,90.79 L 45.26,90.48 L 45.26,90.16 L 45.26,90.16 L 44.89,89.84 L 44.89,89.84 L 44.53,89.52 L 44.53,89.52 L 44.16,89.21 L 44.16,88.89 L 44.16,88.89 L 43.80,88.57 L 43.80,88.57 L 43.43,88.25 L 43.43,88.25 L 43.07,87.94 L 43.07,87.62 L 43.07,87.62 L 42.70,87.30 L 42.70,87.30 L 42.34,86.98 L 42.34,86.67 L 42.34,86.67 L 41.97,86.35 L 41.97,86.35 L 41.61,86.03 L 41.61,86.03 L 41.24,85.71 L 41.24,85.40 L 41.24,85.40 L 40.88,85.08 L 40.88,85.08 L 40.51,84.76 L 40.51,84.76 L 40.15,84.44 L 40.15,84.13 L 40.15,84.13 L 39.78,83.81 L 39.78,83.81 L 39.42,83.49 L 39.42,83.17 L 39.42,83.17 L 39.05,82.86 L 39.05,82.86 L 38.69,82.54 L 38.69,82.54 L 38.32,82.22 L 38.32,81.90 L 38.32,81.90 L 37.96,81.59 L 37.96,81.59 L 37.59,81.27 L 37.59,80.95 L 37.59,80.95 L 37.23,80.63 L 37.23,80.63 L 36.86,80.32 L 36.86,80.32 L 36.50,80.00 L 36.50,79.68 L 36.50,79.68 L 36.13,79.37 L 36.13,79.36 L 35.77,79.05 L 35.77,78.73 L 35.77,78.73 L 35.40,78.41 L 35.40,78.41 L 35.04,78.10 L 35.04,78.09 L 34.67,77.78 L 34.67,77.46 L 34.67,77.46 L 34.31,77.14 L 34.31,77.14 L 33.94,76.83 L 33.94,76.51 L 33.94,76.51 L 33.58,76.19 L 33.58,76.19 L 33.21,75.87 L 33.21,75.56 L 33.21,75.55 L 32.85,75.24 L 32.85,75.24 L 32.48,74.92 L 32.48,74.60 L 32.48,74.60 L 32.12,74.29 L 32.12,74.28 L 31.75,73.97 L 31.75,73.65 L 31.75,73.65 L 31.39,73.33 L 31.39,73.33 L 31.02,73.02 L 31.02,72.70 L 31.02,72.70 L 30.66,72.38 L 30.66,72.38 L 30.29,72.06 L 30.29,71.75 L 30.29,71.75 L 29.93,71.43 L 29.93,71.43 L 29.56,71.11 L 29.56,70.79 L 29.56,70.79 L 29.20,70.48 L 29.20,70.48 L 28.83,70.16 L 28.83,69.84 L 28.83,69.84 L 28.47,69.52 L 28.47,69.52 L 28.10,69.21 L 28.10,68.89 L 28.10,68.89 L 27.74,68.57 L 27.74,68.57 L 27.37,68.25 L 27.37,67.94 L 27.37,67.94 L 27.01,67.62 L 27.01,67.30 L 27.01,67.30 L 26.64,66.98 L 26.64,66.98 L 26.28,66.67 L 26.28,66.35 L 26.28,66.35 L 25.91,66.03 L 25.91,66.03 L 25.55,65.71 L 25.55,65.40 L 25.55,65.40 L 25.18,65.08 L 25.18,64.76 L 25.18,64.76 L 24.82,64.44 L 24.82,64.44 L 24.45,64.13 L 24.45,63.81 L 24.45,63.81 L 24.09,63.49 L 24.09,63.17 L 24.09,63.17 L 23.72,62.86 L 23.72,62.86 L 23.36,62.54 L 23.36,62.22 L 23.36,62.22 L 22.99,61.90 L 22.99,61.59 L 22.99,61.59 L 22.63,61.27 L 22.63,60.95 L 22.63,60.95 L 22.26,60.63 L 22.26,60.63 L 21.90,60.32 L 21.90,60.00 L 21.90,60.00 L 21.53,59.68 L 21.53,59.37 L 21.53,59.36 L 21.17,59.05 L 21.17,58.73 L 21.17,58.73 L 20.80,58.41 L 20.80,58.10 L 20.80,58.09 L 20.44,57.78 L 20.44,57.46 L 20.44,57.46 L 20.07,57.14 L 20.07,57.14 L 19.71,56.83 L 19.71,56.51 L 19.71,56.51 L 19.34,56.19 L 19.34,55.87 L 19.34,55.87 L 18.98,55.56 L 18.98,55.24 L 18.98,55.24 L 18.61,54.92 L 18.61,54.60 L 18.61,54.60 L 18.25,54.29 L 18.25,53.97 L 18.25,53.97 L 17.88,53.65 L 17.88,53.33 L 17.88,53.33 L 17.52,53.02 L 17.52,52.70 L 17.52,52.38 L 17.52,52.38 L 17.15,52.06 L 17.15,51.75 L 17.15,51.75 L 16.79,51.43 L 16.79,51.11 L 16.79,51.11 L 16.42,50.79 L 16.42,50.48 L 16.42,50.48 L 16.06,50.16 L 16.06,49.84 L 16.06,49.52 L 16.06,49.52 L 15.69,49.21 L 15.69,48.89 L 15.69,48.89 L 15.33,48.57 L 15.33,48.25 L 15.33,47.94 L 15.33,47.94 L 14.96,47.62 L 14.96,47.30 L 14.96,46.98 L 14.96,46.98 L 14.60,46.67 L 14.60,46.35 L 14.60,46.35 L 14.23,46.03 L 14.23,45.71 L 14.23,45.40 L 14.23,45.08 L 14.23,45.08 L 13.87,44.76 L 13.87,44.44 L 13.87,44.13 L 13.87,44.13 L 13.50,43.81 L 13.50,43.49 L 13.50,43.17 L 13.50,42.86 L 13.50,42.86 L 13.14,42.54 L 13.14,42.22 L 13.14,41.90 L 13.14,41.59 L 13.14,41.27 L 13.14,41.27 L 12.77,40.95 L 12.77,40.63 L 12.77,40.32 L 12.77,40.00 L 12.77,39.68 L 12.77,39.37 L 12.77,39.05 L 12.77,39.05 L 12.41,38.73 L 12.41,38.41 L 12.41,38.10 L 12.41,37.78 L 12.41,37.46 L 12.41,37.14 L 12.41,36.83 L 12.41,36.51 L 12.41,36.19 L 12.41,35.87 L 12.41,35.56 L 12.41,35.24 L 12.41,34.92 L 12.41,34.60 L 12.41,34.29 L 12.41,33.97 L 12.41,33.65 L 12.41,33.33 L 12.41,33.02 L 12.41,32.70 L 12.41,32.38 L 12.41,32.06 L 12.77,31.75 L 12.77,31.75 L 12.77,31.43 L 12.77,31.11 L 12.77,30.79 L 12.77,30.48 L 12.77,30.16 L 12.77,29.84 L 13.14,29.52 L 13.14,29.52 L 13.14,29.21 L 13.14,28.89 L 13.14,28.57 L 13.50,28.25 L 13.50,28.25 L 13.50,27.94 L 13.50,27.62 L 13.50,27.30 L 13.87,26.99 L 13.87,26.98 L 13.87,26.67 L 13.87,26.35 L 13.87,26.03 L 14.23,25.72 L 14.23,25.71 L 14.23,25.40 L 14.23,25.08 L 14.60,24.76 L 14.60,24.76 L 14.60,24.44 L 14.96,24.13 L 14.96,24.13 L 14.96,23.81 L 14.96,23.49 L 15.33,23.18 L 15.33,23.17 L 15.33,22.86 L 15.69,22.54 L 15.69,22.54 L 15.69,22.22 L 16.06,21.91 L 16.06,21.90 L 16.06,21.59 L 16.42,21.27 L 16.42,21.27 L 16.42,20.95 L 16.42,20.63 L 16.79,20.32 L 16.79,20.32 L 17.15,20.00 L 17.15,20.00 L 17.15,19.68 L 17.52,19.37 L 17.52,19.37 L 17.52,19.05 L 17.88,18.73 L 17.88,18.73 L 18.25,18.41 L 18.25,18.41 L 18.25,18.10 L 18.61,17.78 L 18.61,17.78 L 18.98,17.46 L 18.98,17.46 L 18.98,17.14 L 19.34,16.83 L 19.34,16.83 L 19.71,16.51 L 19.71,16.51 L 19.71,16.19 L 20.07,15.87 L 20.07,15.87 L 20.44,15.56 L 20.44,15.56 L 20.80,15.24 L 20.80,15.24 L 21.17,14.92 L 21.17,14.92 L 21.17,14.60 L 21.53,14.29 L 21.53,14.29 L 21.90,13.97 L 21.90,13.97 L 22.26,13.65 L 22.26,13.65 L 22.63,13.33 L 22.63,13.33 L 22.99,13.02 L 22.99,13.02 L 23.36,12.70 L 23.36,12.70 L 23.72,12.38 L 23.72,12.38 L 24.09,12.06 L 24.09,12.06 L 24.45,11.75 L 24.45,11.75 L 24.82,11.43 L 24.82,11.43 L 25.18,11.11 L 25.18,11.11 L 25.55,10.79 L 25.55,10.79 L 25.91,10.48 L 25.91,10.48 L 26.28,10.16 L 26.64,10.16 L 26.64,10.16 L 27.01,9.84 L 27.01,9.84 L 27.37,9.52 L 27.37,9.52 L 27.74,9.21 L 28.10,9.21 L 28.10,9.21 L 28.47,8.89 L 28.47,8.89 L 28.83,8.57 L 28.83,8.57 L 29.20,8.25 L 29.56,8.25 L 29.56,8.25 L 29.93,7.94 L 30.29,7.94 L 30.29,7.94 L 30.66,7.62 L 30.66,7.62 L 31.02,7.30 L 31.39,7.30 L 31.39,7.30 L 31.75,6.99 L 32.12,6.99 L 32.12,6.98 L 32.48,6.67 L 32.48,6.67 L 32.85,6.35 L 33.21,6.35 L 33.21,6.35 L 33.58,6.03 L 33.94,6.03 L 33.94,6.03 L 34.31,5.72 L 34.67,5.72 L 35.04,5.72 L 35.04,5.71 L 35.40,5.40 L 35.77,5.40 L 35.77,5.40 L 36.13,5.08 L 36.50,5.08 L 36.50,5.08 L 36.86,4.76 L 37.23,4.76 L 37.59,4.76 L 37.59,4.76 L 37.96,4.45 L 38.32,4.45 L 38.69,4.45 L 38.69,4.44 L 39.05,4.13 L 39.42,4.13 L 39.78,4.13 L 39.78,4.13 L 40.15,3.81 L 40.51,3.81 L 40.88,3.81 L 41.24,3.81 L 41.24,3.81 L 41.61,3.49 L 41.97,3.49 L 42.34,3.49 L 42.70,3.49 L 42.70,3.49 L 43.07,3.18 L 43.43,3.18 L 43.80,3.18 L 44.16,3.18 L 44.53,3.18 L 44.89,3.18 L 44.89,3.17 L 45.26,2.86 L 45.62,2.86 L 45.99,2.86 L 46.35,2.86 L 46.72,2.86 L 47.08,2.86 L 47.45,2.86 L 47.81,2.86 L 48.18,2.86 L 48.54,2.86 L 48.91,2.86 L 49.27,2.86 L 49.27,2.86 L 49.64,2.54 L 50.00,2.54 L 50.36,2.54 L 50.73,2.54 L 51.09,2.54 L 51.46,2.86 L 51.46,2.86 L 51.82,2.86 L 52.19,2.86 L 52.55,2.86 L 52.92,2.86 L 53.28,2.86 L 53.65,2.86 L 54.01,2.86 L 54.38,2.86 L 54.74,2.86 L 55.11,2.86 L 55.47,2.86 L 55.84,3.17 L 55.84,3.18 L 56.20,3.18 L 56.57,3.18 L 56.93,3.18 L 57.30,3.18 L 57.66,3.18 L 58.03,3.49 L 58.03,3.49 L 58.39,3.49 L 58.76,3.49 L 59.12,3.49 L 59.49,3.49 L 59.85,3.81 L 59.85,3.81 L 60.22,3.81 L 60.58,3.81 L 60.95,3.81 L 61.31,4.13 L 61.31,4.13 L 61.68,4.13 L 62.04,4.13 L 62.41,4.44 L 62.41,4.45 L 62.77,4.45 L 63.14,4.45 L 63.50,4.76 L 63.50,4.76 L 63.87,4.76 L 64.23,5.08 L 64.23,5.08 L 64.60,5.08 L 64.96,5.08 L 65.33,5.40 L 65.33,5.40 L 65.69,5.40 L 66.06,5.71 L 66.06,5.72 L 66.42,5.72 L 66.79,6.03 L 66.79,6.03 L 67.15,6.03 L 67.52,6.03 L 67.88,6.35 L 67.88,6.35 L 68.25,6.67 L 68.25,6.67 L 68.61,6.67 L 68.98,6.98 L 68.98,6.99 L 69.34,6.99 L 69.71,7.30 L 69.71,7.30 L 70.07,7.30 L 70.44,7.62 L 70.44,7.62 L 70.80,7.94 L 70.80,7.94 L 71.17,7.94 L 71.53,8.25 L 71.53,8.25 L 71.90,8.57 L 71.90,8.57 L 72.26,8.57 L 72.63,8.89 L 72.63,8.89 L 72.99,9.21 L 72.99,9.21 L 73.36,9.52 L 73.36,9.52 L 73.72,9.52 L 74.09,9.84 L 74.09,9.84 L 74.45,10.16 L 74.45,10.16 L 74.82,10.48 L 74.82,10.48 L 75.18,10.79 L 75.18,10.79 L 75.55,10.79 L 75.91,11.11 L 75.91,11.11 L 76.28,11.43 L 76.28,11.43 L 76.64,11.75 L 76.64,11.75 L 77.01,12.06 L 77.01,12.06 L 77.37,12.38 L 77.37,12.38 L 77.74,12.70 L 77.74,12.70 L 78.10,13.02 L 78.10,13.02 L 78.47,13.33 L 78.47,13.33 L 78.83,13.65 L 78.83,13.65 L 79.20,13.97 L 79.20,13.97 L 79.56,14.29 L 79.56,14.60 L 79.56,14.60 L 79.93,14.92 L 79.93,14.92 L 80.29,15.24 L 80.29,15.24 L 80.66,15.56 L 80.66,15.56 L 81.02,15.87 L 81.02,16.19 L 81.02,16.19 L 81.39,16.51 L 81.39,16.51 L 81.75,16.83 L 81.75,16.83 L 82.12,17.14 L 82.12,17.46 L 82.12,17.46 L 82.48,17.78 L 82.48,17.78 L 82.85,18.10 L 82.85,18.41 L 82.85,18.41 L 83.21,18.73 L 83.21,19.05 L 83.21,19.05 L 83.58,19.37 L 83.58,19.37 L 83.94,19.68 L 83.94,20.00 L 83.94,20.00 L 84.31,20.32 L 84.31,20.63 L 84.31,20.64 L 84.67,20.95 L 84.67,21.27 L 84.67,21.27 L 85.04,21.59 L 85.04,21.90 L 85.04,21.91 L 85.40,22.22 L 85.40,22.54 L 85.40,22.54 L 85.77,22.86 L 85.77,23.17 L 85.77,23.49 L 85.77,23.49 L 86.13,23.81 L 86.13,24.13 L 86.13,24.13 L 86.50,24.44 L 86.50,24.76 L 86.50,25.08 L 86.50,25.08 L 86.86,25.40 L 86.86,25.71 L 86.86,26.03 L 86.86,26.03 L 87.23,26.35 L 87.23,26.67 L 87.23,26.98 L 87.23,26.99 L 87.59,27.30 L 87.59,27.62 L 87.59,27.94 L 87.59,28.25 L 87.59,28.25 L 87.96,28.57 L 87.96,28.89 L 87.96,29.21 L 87.96,29.52 L 87.96,29.84 L 87.96,29.84 L 88.32,30.16 L 88.32,30.48 L 88.32,30.79 L 88.32,31.11 L 88.32,31.43 L 88.32,31.75 L 88.32,32.06 L 88.32,32.06 L 88.68,32.38 L 88.68,32.70 L 88.68,33.02 L 88.68,33.33 L 88.68,33.65 L 88.68,33.97 L 88.68,34.29 L 88.68,34.60 L 88.68,34.92 L 88.68,35.24 L 88.68,35.56 L 88.68,35.87 L 88.68,36.19 L 88.68,36.51 L 88.68,36.83 L 88.68,37.14 L 88.68,37.46 L 88.68,37.78 L 88.68,38.10 L 88.68,38.41 L 88.68,38.73 L 88.68,39.05 L 88.68,39.37 L 88.32,39.68 L 88.32,39.68 L 88.32,40.00 L 88.32,40.32 L 88.32,40.63 L 88.32,40.95 L 88.32,41.27 L 88.32,41.59 L 87.96,41.90 L 87.96,41.90 L 87.96,42.22 L 87.96,42.54 L 87.96,42.86 L 87.59,43.17 L 87.59,43.17 L 87.59,43.49 L 87.59,43.81 L 87.59,44.13 L 87.23,44.44 L 87.23,44.44 L 87.23,44.76 L 87.23,45.08 L 86.86,45.40 L 86.86,45.40 L 86.86,45.71 L 86.86,46.03 L 86.50,46.35 L 86.50,46.35 L 86.50,46.67 L 86.50,46.98 L 86.13,47.30 L 86.13,47.30 L 86.13,47.62 L 86.13,47.94 L 85.77,48.25 L 85.77,48.25 L 85.77,48.57 L 85.40,48.89 L 85.40,48.89 L 85.40,49.21 L 85.04,49.52 L 85.04,49.52 L 85.04,49.84 L 85.04,50.16 L 84.67,50.48 L 84.67,50.48 L 84.67,50.79 L 84.31,51.11 L 84.31,51.11 L 84.31,51.43 L 83.94,51.75 L 83.94,51.75 L 83.94,52.06 L 83.58,52.38 L 83.58,52.38 L 83.58,52.70 L 83.21,53.01 L 83.21,53.02 L 83.21,53.33 L 82.85,53.65 L 82.85,53.65 L 82.85,53.97 L 82.48,54.28 L 82.48,54.29 L 82.48,54.60 L 82.48,54.92 L 82.12,55.24 L 82.12,55.24 L 81.75,55.55 L 81.75,55.56 L 81.75,55.87 L 81.39,56.19 L 81.39,56.19 L 81.39,56.51 L 81.02,56.82 L 81.02,56.83 L 81.02,57.14 L 80.66,57.46 L 80.66,57.46 L 80.66,57.78 L 80.29,58.09 L 80.29,58.10 L 80.29,58.41 L 79.93,58.73 L 79.93,58.73 L 79.93,59.05 L 79.56,59.36 L 79.56,59.37 L 79.56,59.68 L 79.20,60.00 L 79.20,60.00 L 78.83,60.32 L 78.83,60.32 L 78.83,60.63 L 78.47,60.95 L 78.47,60.95 L 78.47,61.27 L 78.10,61.59 L 78.10,61.59 L 78.10,61.90 L 77.74,62.22 L 77.74,62.22 L 77.37,62.54 L 77.37,62.54 L 77.37,62.86 L 77.01,63.17 L 77.01,63.17 L 77.01,63.49 L 76.64,63.81 L 76.64,63.81 L 76.64,64.13 L 76.28,64.44 L 76.28,64.44 L 75.91,64.76 L 75.91,64.76 L 75.91,65.08 L 75.55,65.40 L 75.55,65.40 L 75.18,65.71 L 75.18,65.71 L 75.18,66.03 L 74.82,66.35 L 74.82,66.35 L 74.82,66.67 L 74.45,66.98 L 74.45,66.98 L 74.09,67.30 L 74.09,67.30 L 74.09,67.62 L 73.72,67.94 L 73.72,67.94 L 73.36,68.25 L 73.36,68.25 L 73.36,68.57 L 72.99,68.89 L 72.99,68.89 L 72.99,69.21 L 72.63,69.52 L 72.63,69.52 L 72.26,69.84 L 72.26,69.84 L 72.26,70.16 L 71.90,70.48 L 71.90,70.48 L 71.53,70.79 L 71.53,70.79 L 71.53,71.11 L 71.17,71.43 L 71.17,71.43 L 70.80,71.75 L 70.80,71.75 L 70.80,72.06 L 70.44,72.38 L 70.44,72.38 L 70.07,72.70 L 70.07,72.70 L 70.07,73.02 L 69.71,73.33 L 69.71,73.33 L 69.34,73.65 L 69.34,73.65 L 69.34,73.97 L 68.98,74.28 L 68.98,74.29 L 68.61,74.60 L 68.61,74.60 L 68.61,74.92 L 68.25,75.24 L 68.25,75.24 L 67.88,75.55 L 67.88,75.56 L 67.88,75.87 L 67.52,76.19 L 67.52,76.19 L 67.15,76.51 L 67.15,76.51 L 67.15,76.83 L 66.79,77.14 L 66.79,77.14 L 66.42,77.46 L 66.42,77.46 L 66.42,77.78 L 66.06,78.09 L 66.06,78.10 L 65.69,78.41 L 65.69,78.41 L 65.33,78.73 L 65.33,78.73 L 65.33,79.05 L 64.96,79.36 L 64.96,79.37 L 64.60,79.68 L 64.60,79.68 L 64.60,80.00 L 64.23,80.32 L 64.23,80.32 L 63.87,80.63 L 63.87,80.63 L 63.50,80.95 L 63.50,80.95 L 63.50,81.27 L 63.14,81.59 L 63.14,81.59 L 62.77,81.90 L 62.77,81.90 L 62.77,82.22 L 62.41,82.54 L 62.41,82.54 L 62.04,82.86 L 62.04,82.86 L 61.68,83.17 L 61.68,83.17 L 61.68,83.49 L 61.31,83.81 L 61.31,83.81 L 60.95,84.13 L 60.95,84.13 L 60.95,84.44 L 60.58,84.76 L 60.58,84.76 L 60.22,85.08 L 60.22,85.08 L 59.85,85.40 L 59.85,85.40 L 59.85,85.71 L 59.49,86.03 L 59.49,86.03 L 59.12,86.35 L 59.12,86.35 L 59.12,86.67 L 58.76,86.98 L 58.76,86.98 L 58.39,87.30 L 58.39,87.30 L 58.03,87.62 L 58.03,87.62 L 58.03,87.94 L 57.66,88.25 L 57.66,88.25 L 57.30,88.57 L 57.30,88.57 L 57.30,88.89 L 56.93,89.21 L 56.93,89.21 L 56.57,89.52 L 56.57,89.52 L 56.20,89.84 L 56.20,89.84 L 56.20,90.16 L 55.84,90.48 L 55.84,90.48 L 55.47,90.79 L 55.47,90.79 L 55.11,91.11 L 55.11,91.11 L 55.11,91.43 L 54.74,91.75 L 54.74,91.75 L 54.38,92.06 L 54.38,92.06 L 54.38,92.38 L 54.01,92.70 L 54.01,92.70 L 53.65,93.01 L 53.65,93.02 L 53.28,93.33 L 53.28,93.33 L 52.92,93.65 L 52.92,93.65 L 52.92,93.97 L 52.55,94.28 L 52.55,94.29 L 52.19,94.60 L 51.82,94.60 L 51.82,94.60 L 51.46,94.92 Z" fill="#22c55e" stroke="none" /><path d="M 47.81,53.02 L 48.18,52.70 L 48.54,52.70 L 48.91,52.70 L 49.27,52.70 L 49.64,52.70 L 50.00,52.70 L 50.00,52.70 L 50.36,52.38 L 50.73,52.38 L 51.09,52.38 L 51.46,52.38 L 51.46,52.38 L 51.82,52.06 L 52.19,52.06 L 52.55,52.06 L 52.56,52.06 L 52.92,51.75 L 53.28,51.75 L 53.29,51.75 L 53.65,51.43 L 54.01,51.43 L 54.38,51.43 L 54.38,51.43 L 54.74,51.11 L 55.11,51.11 L 55.11,51.11 L 55.47,50.79 L 55.48,50.79 L 55.84,50.48 L 56.20,50.48 L 56.21,50.48 L 56.57,50.16 L 56.93,50.16 L 56.94,50.16 L 57.30,49.84 L 57.30,49.84 L 57.66,49.52 L 57.67,49.52 L 58.03,49.21 L 58.39,49.21 L 58.40,49.21 L 58.76,48.89 L 58.76,48.89 L 59.12,48.57 L 59.13,48.57 L 59.49,48.25 L 59.49,48.25 L 59.85,47.94 L 59.86,47.94 L 60.22,47.62 L 60.22,47.62 L 60.58,47.30 L 60.59,47.30 L 60.95,46.99 L 60.95,46.98 L 61.31,46.67 L 61.32,46.67 L 61.68,46.35 L 61.68,46.35 L 61.68,46.03 L 62.04,45.72 L 62.04,45.71 L 62.41,45.40 L 62.41,45.40 L 62.77,45.08 L 62.77,45.08 L 62.77,44.76 L 63.14,44.45 L 63.14,44.44 L 63.14,44.13 L 63.50,43.81 L 63.50,43.81 L 63.87,43.49 L 63.87,43.49 L 63.87,43.17 L 64.23,42.86 L 64.23,42.86 L 64.23,42.54 L 64.60,42.22 L 64.60,42.22 L 64.60,41.90 L 64.96,41.59 L 64.96,41.59 L 64.96,41.27 L 65.33,40.95 L 65.33,40.95 L 65.33,40.63 L 65.33,40.32 L 65.69,40.00 L 65.69,40.00 L 65.69,39.68 L 66.06,39.37 L 66.06,39.37 L 66.06,39.05 L 66.06,38.73 L 66.06,38.41 L 66.42,38.10 L 66.42,38.10 L 66.42,37.78 L 66.42,37.46 L 66.79,37.14 L 66.79,37.14 L 66.79,36.83 L 66.79,36.51 L 66.79,36.19 L 67.15,35.87 L 67.15,35.87 L 67.15,35.56 L 67.15,35.24 L 67.15,34.92 L 67.15,34.60 L 67.52,34.29 L 67.52,34.29 L 67.52,33.97 L 67.52,33.65 L 67.52,33.33 L 67.52,33.02 L 67.52,32.70 L 67.52,32.38 L 67.88,32.06 L 67.88,32.06 L 67.88,31.75 L 67.88,31.43 L 67.88,31.11 L 67.88,30.79 L 67.88,30.48 L 67.88,30.16 L 67.88,29.84 L 67.88,29.52 L 67.88,29.21 L 67.88,28.89 L 68.25,28.57 L 68.25,28.57 L 68.25,28.25 L 68.25,27.94 L 68.25,27.62 L 68.25,27.30 L 68.25,26.98 L 68.25,26.67 L 68.25,26.35 L 68.25,26.03 L 68.25,25.71 L 68.25,25.40 L 68.25,25.08 L 68.25,24.76 L 68.25,24.44 L 68.25,24.13 L 68.25,23.81 L 68.25,23.49 L 68.25,23.17 L 68.25,22.86 L 68.25,22.54 L 68.25,22.22 L 68.25,21.90 L 68.25,21.59 L 68.25,21.27 L 68.25,20.95 L 68.25,20.95 L 67.88,20.63 L 67.88,20.32 L 67.88,20.00 L 67.88,19.68 L 67.88,19.37 L 67.88,19.05 L 67.88,18.73 L 67.88,18.41 L 67.88,18.10 L 67.88,17.78 L 67.88,17.46 L 67.88,17.46 L 67.52,17.14 L 67.52,17.14 L 67.15,17.14 L 66.79,17.14 L 66.79,17.14 L 66.42,17.46 L 66.06,17.46 L 65.69,17.46 L 65.33,17.46 L 64.96,17.46 L 64.60,17.46 L 64.23,17.46 L 63.87,17.46 L 63.50,17.46 L 63.50,17.46 L 63.14,17.78 L 62.77,17.78 L 62.41,17.78 L 62.04,17.78 L 61.68,17.78 L 61.31,17.78 L 61.31,17.78 L 60.95,18.09 L 60.58,18.09 L 60.22,18.09 L 59.85,18.09 L 59.49,18.09 L 59.12,18.09 L 59.12,18.10 L 58.76,18.41 L 58.39,18.41 L 58.03,18.41 L 57.66,18.41 L 57.66,18.41 L 57.30,18.73 L 56.93,18.73 L 56.57,18.73 L 56.20,18.73 L 56.20,18.73 L 55.84,19.05 L 55.47,19.05 L 55.11,19.05 L 54.74,19.05 L 54.74,19.05 L 54.38,19.36 L 54.01,19.36 L 53.65,19.36 L 53.65,19.37 L 53.28,19.68 L 52.92,19.68 L 52.55,19.68 L 52.55,19.68 L 52.19,20.00 L 51.82,20.00 L 51.46,20.00 L 51.46,20.00 L 51.09,20.32 L 50.73,20.32 L 50.36,20.32 L 50.36,20.32 L 50.00,20.63 L 49.64,20.63 L 49.27,20.63 L 49.27,20.63 L 48.91,20.95 L 48.54,20.95 L 48.54,20.95 L 48.18,21.27 L 47.81,21.27 L 47.81,21.27 L 47.45,21.59 L 47.08,21.59 L 46.72,21.59 L 46.71,21.59 L 46.35,21.90 L 45.99,21.90 L 45.98,21.90 L 45.62,22.22 L 45.26,22.22 L 45.25,22.22 L 44.89,22.54 L 44.53,22.54 L 44.52,22.54 L 44.16,22.86 L 44.16,22.86 L 43.80,23.17 L 43.43,23.17 L 43.43,23.17 L 43.07,23.49 L 42.70,23.49 L 42.70,23.49 L 42.34,23.81 L 42.33,23.81 L 41.97,24.13 L 41.61,24.13 L 41.60,24.13 L 41.24,24.44 L 41.24,24.44 L 40.88,24.76 L 40.87,24.76 L 40.51,25.08 L 40.15,25.08 L 40.14,25.08 L 39.78,25.40 L 39.78,25.40 L 39.42,25.71 L 39.41,25.71 L 39.05,26.03 L 39.05,26.03 L 38.69,26.35 L 38.68,26.35 L 38.32,26.67 L 38.32,26.67 L 37.96,26.98 L 37.96,26.98 L 37.59,27.30 L 37.59,27.30 L 37.23,27.62 L 37.23,27.62 L 36.86,27.94 L 36.86,27.94 L 36.50,28.25 L 36.50,28.25 L 36.13,28.57 L 36.13,28.57 L 36.13,28.89 L 35.77,29.21 L 35.77,29.21 L 35.40,29.52 L 35.40,29.52 L 35.04,29.84 L 35.04,29.84 L 35.04,30.16 L 34.67,30.48 L 34.67,30.48 L 34.67,30.79 L 34.31,31.11 L 34.31,31.11 L 33.94,31.43 L 33.94,31.43 L 33.94,31.75 L 33.58,32.06 L 33.58,32.06 L 33.58,32.38 L 33.21,32.70 L 33.21,32.70 L 33.21,33.02 L 33.21,33.33 L 32.85,33.65 L 32.85,33.65 L 32.85,33.97 L 32.85,34.29 L 32.48,34.60 L 32.48,34.60 L 32.48,34.92 L 32.48,35.24 L 32.12,35.55 L 32.12,35.56 L 32.12,35.87 L 32.12,36.19 L 32.12,36.51 L 32.12,36.83 L 32.12,37.14 L 31.75,37.46 L 31.75,37.46 L 31.75,37.78 L 31.75,38.10 L 31.75,38.41 L 31.75,38.73 L 31.75,39.05 L 31.75,39.37 L 31.75,39.68 L 31.75,40.00 L 31.75,40.32 L 31.75,40.63 L 31.75,40.95 L 31.75,41.27 L 31.75,41.59 L 31.75,41.59 L 32.12,41.90 L 32.12,42.22 L 32.12,42.54 L 32.12,42.86 L 32.12,43.17 L 32.12,43.49 L 32.12,43.49 L 32.48,43.81 L 32.48,44.13 L 32.48,44.44 L 32.48,44.45 L 32.85,44.76 L 32.85,45.08 L 32.85,45.40 L 32.85,45.71 L 32.85,45.72 L 33.21,46.03 L 33.21,46.35 L 33.21,46.35 L 33.58,46.67 L 33.58,46.98 L 33.58,47.30 L 33.58,47.30 L 33.94,47.62 L 33.94,47.94 L 33.94,47.94 L 34.31,48.25 L 34.31,48.57 L 34.31,48.57 L 34.67,48.89 L 34.67,49.21 L 34.67,49.21 L 35.04,49.52 L 35.04,49.52 L 35.04,49.52 L 35.40,49.21 L 35.40,49.21 L 35.40,48.89 L 35.77,48.57 L 35.77,48.57 L 35.77,48.25 L 36.13,47.94 L 36.13,47.94 L 36.13,47.62 L 36.13,47.30 L 36.50,46.99 L 36.50,46.98 L 36.50,46.67 L 36.86,46.35 L 36.86,46.35 L 37.23,46.03 L 37.23,46.03 L 37.23,45.71 L 37.59,45.40 L 37.59,45.40 L 37.59,45.08 L 37.96,44.76 L 37.96,44.76 L 37.96,44.44 L 38.32,44.13 L 38.32,44.13 L 38.32,43.81 L 38.69,43.49 L 38.69,43.49 L 39.05,43.18 L 39.05,43.17 L 39.05,42.86 L 39.42,42.54 L 39.42,42.54 L 39.78,42.22 L 39.78,42.22 L 39.78,41.90 L 40.15,41.59 L 40.15,41.59 L 40.51,41.27 L 40.51,41.27 L 40.51,40.95 L 40.88,40.64 L 40.88,40.63 L 41.24,40.32 L 41.24,40.32 L 41.24,40.00 L 41.61,39.68 L 41.61,39.68 L 41.97,39.37 L 41.97,39.37 L 42.34,39.05 L 42.34,39.05 L 42.34,38.73 L 42.70,38.41 L 42.70,38.41 L 43.07,38.10 L 43.07,38.10 L 43.43,37.78 L 43.43,37.78 L 43.80,37.46 L 43.80,37.46 L 43.80,37.14 L 44.16,36.83 L 44.16,36.83 L 44.53,36.51 L 44.53,36.51 L 44.89,36.19 L 44.89,36.19 L 45.26,35.87 L 45.26,35.87 L 45.62,35.56 L 45.62,35.56 L 45.99,35.24 L 45.99,35.24 L 46.35,34.92 L 46.35,34.92 L 46.72,34.60 L 46.72,34.60 L 47.08,34.29 L 47.08,34.29 L 47.45,33.97 L 47.45,33.97 L 47.81,33.65 L 47.81,33.65 L 48.18,33.33 L 48.18,33.33 L 48.54,33.02 L 48.54,33.02 L 48.91,32.70 L 48.91,32.70 L 49.27,32.38 L 49.27,32.38 L 49.64,32.06 L 49.64,32.06 L 50.00,31.75 L 50.36,31.75 L 50.37,31.75 L 50.73,31.43 L 50.73,31.43 L 51.09,31.11 L 51.10,31.11 L 51.46,30.79 L 51.46,30.79 L 51.82,30.48 L 52.19,30.48 L 52.19,30.48 L 52.55,30.16 L 52.56,30.16 L 52.92,29.84 L 52.92,29.84 L 53.28,29.52 L 53.65,29.52 L 53.65,29.52 L 54.01,29.21 L 54.02,29.21 L 54.38,28.89 L 54.74,28.89 L 54.75,28.89 L 55.11,28.57 L 55.11,28.57 L 55.47,28.25 L 55.84,28.25 L 55.84,28.25 L 56.20,27.94 L 56.21,27.94 L 56.57,27.62 L 56.93,27.62 L 56.94,27.62 L 57.30,27.30 L 57.66,27.62 L 57.66,27.94 L 57.30,28.25 L 57.30,28.25 L 56.93,28.57 L 56.93,28.57 L 56.57,28.89 L 56.57,28.89 L 56.20,29.21 L 56.20,29.21 L 55.84,29.52 L 55.84,29.52 L 55.47,29.84 L 55.47,29.84 L 55.11,30.16 L 55.11,30.16 L 54.74,30.48 L 54.74,30.48 L 54.38,30.79 L 54.38,30.79 L 54.01,31.11 L 54.01,31.11 L 54.01,31.43 L 53.65,31.75 L 53.65,31.75 L 53.28,32.06 L 53.28,32.06 L 52.92,32.38 L 52.92,32.38 L 52.55,32.70 L 52.55,32.70 L 52.19,33.01 L 52.19,33.02 L 52.19,33.33 L 51.82,33.65 L 51.82,33.65 L 51.46,33.97 L 51.46,33.97 L 51.09,34.28 L 51.09,34.29 L 51.09,34.60 L 50.73,34.92 L 50.73,34.92 L 50.36,35.24 L 50.36,35.24 L 50.00,35.55 L 50.00,35.56 L 50.00,35.87 L 49.64,36.19 L 49.63,36.19 L 49.27,36.51 L 49.27,36.51 L 48.91,36.82 L 48.90,36.83 L 48.90,37.14 L 48.54,37.46 L 48.54,37.46 L 48.18,37.78 L 48.17,37.78 L 48.17,38.10 L 47.81,38.41 L 47.81,38.41 L 47.45,38.73 L 47.44,38.73 L 47.44,39.05 L 47.08,39.36 L 47.08,39.37 L 47.08,39.68 L 46.72,40.00 L 46.71,40.00 L 46.35,40.32 L 46.35,40.32 L 46.35,40.63 L 45.99,40.95 L 45.98,40.95 L 45.98,41.27 L 45.62,41.59 L 45.62,41.59 L 45.26,41.90 L 45.25,41.90 L 45.25,42.22 L 44.89,42.54 L 44.89,42.54 L 44.89,42.86 L 44.53,43.17 L 44.52,43.17 L 44.52,43.49 L 44.16,43.81 L 44.16,43.81 L 44.16,44.13 L 43.80,44.44 L 43.79,44.44 L 43.79,44.76 L 43.43,45.08 L 43.43,45.08 L 43.07,45.40 L 43.06,45.40 L 43.06,45.71 L 43.06,46.03 L 42.70,46.35 L 42.70,46.35 L 42.70,46.67 L 42.34,46.98 L 42.33,46.98 L 42.33,47.30 L 41.97,47.62 L 41.97,47.62 L 41.97,47.94 L 41.61,48.25 L 41.60,48.25 L 41.60,48.57 L 41.60,48.89 L 41.24,49.21 L 41.24,49.21 L 41.24,49.52 L 40.88,49.84 L 40.87,49.84 L 40.87,50.16 L 40.87,50.48 L 40.51,50.79 L 40.51,50.79 L 40.51,51.11 L 40.51,51.43 L 40.15,51.75 L 40.14,51.75 L 40.14,52.06 L 40.14,52.38 L 40.15,52.38 L 40.51,52.70 L 40.51,52.70 L 40.88,52.70 L 41.24,52.70 L 41.61,52.70 L 41.97,52.70 L 42.33,53.02 L 42.34,53.02 L 42.70,53.02 L 43.07,53.02 L 43.43,53.02 L 43.80,53.02 L 44.16,53.02 L 44.53,53.02 L 44.89,53.02 L 45.26,53.02 L 45.62,53.02 L 45.99,53.02 L 46.35,53.02 L 46.72,53.02 L 47.08,53.02 L 47.45,53.02 L 47.81,53.02 L 47.81,53.02 Z" fill="#22c55e" stroke="none" /></svg>